<mxfile host="Electron" modified="2024-05-26T13:33:20.702Z" agent="Mozilla/5.0 (Windows NT 10.0; Win64; x64) AppleWebKit/537.36 (KHTML, like Gecko) draw.io/24.4.0 Chrome/120.0.6099.109 Electron/28.1.0 Safari/537.36" etag="HrVIipxKung5_NmkUOWW" version="24.4.0" type="device">
  <diagram name="第1頁" id="YPkbBm1efjxhEdKyyK_S">
    <mxGraphModel dx="1434" dy="844" grid="0" gridSize="10" guides="1" tooltips="1" connect="1" arrows="1" fold="1" page="1" pageScale="1" pageWidth="827" pageHeight="1169" math="0" shadow="0">
      <root>
        <mxCell id="0" />
        <mxCell id="1" parent="0" />
        <mxCell id="IzDUEui8ukdzNdJsO-8C-1" value="題目: 你要修numCourses，然後你會有array，上面記錄，你修a課前，必先修b課。" style="rounded=1;whiteSpace=wrap;html=1;" parent="1" vertex="1">
          <mxGeometry x="49" y="15" width="737" height="60" as="geometry" />
        </mxCell>
        <mxCell id="IzDUEui8ukdzNdJsO-8C-2" value="建立Graph: Linked List" style="rounded=1;whiteSpace=wrap;html=1;" parent="1" vertex="1">
          <mxGeometry x="219" y="89" width="390" height="60" as="geometry" />
        </mxCell>
        <mxCell id="IzDUEui8ukdzNdJsO-8C-3" value="Traversal Graph: Recursive" style="rounded=1;whiteSpace=wrap;html=1;" parent="1" vertex="1">
          <mxGeometry x="219" y="160" width="390" height="60" as="geometry" />
        </mxCell>
        <mxCell id="oL8W-r1NKnuUTj57xtsP-1" value="" style="shape=image;verticalLabelPosition=bottom;labelBackgroundColor=default;verticalAlign=top;aspect=fixed;imageAspect=0;image=data:image/png,iVBORw0KGgoAAAANSUhEUgAAATMAAAEiCAYAAACV0jVgAAAAAXNSR0IArs4c6QAAAARnQU1BAACxjwv8YQUAAAAJcEhZcwAADsMAAA7DAcdvqGQAADb8SURBVHhe7Z0PeBXVnfe/CBVUiKIGRcKihD8SFE1QIUnbBG0DrYK0FuvSC913gWcrUd8G367UxxqD+1DcfSR9reDTBdYtXnnV1C5/7BZSLUQ3BBVBAYMCoVpiUaNQo6io2He+585J5g735t7k3vBn8v08z2TmzpyZOXPmnO/8fr9zMtPt0KFDf4MQQpzknOLOhRDipEZiJoQIBBIzIUQgkJgJIQKBxEwIEQgkZkKIQCAxE0IEAomZECIQSMyEEIFAYiaECAQSMyFEIJCYCSECgcRMCBEI0vrWjMbGRvz2t781E5ezsrLM+jFjxuC73/2umQshRGeQFjGjcM2dOxebNm0yv62IcW7XEf4Oh8Mt24UQIl2k7GY+//zzKC4uNqI1duxYPProo9iwYYOZKFx79uwxy9xG0QuFQmaf4NGA8D8VYPSkCmxodlcJIY4ZKYkZxekHP/iBWb7tttuMeFlX8sknn8QDDzxglq1FxjTc54477jDzxFSjYuhQDPVNo8fdiNL716DhsJtMCNHlScnNpJVFi4zWmD8eRmuN0CrzQpGjmNFSo8C1DcWsFOHLSxAa1c9ddxjvbt2A6u1NyBgxGw/+Vxnyu7ubjgHNtctwz8NVOPPGtSgvcVcKIY47HbbM6Cpa17I9gf0bbrjB7MN9k3Y3c65H+c/K3Wk+Fv12PVbdng/sXIz/eDQZCy99NO2swZqaBveXEOJEocNixh5LsmDBAjNvD3Yfe4z20xM5s0IY7yxtaKiPrBJCdGlSssxIR3om7T4pdQQ4rmVPd7EVN8ZWXu3+9hJrWwOWTXPWTVuGhiONqL6/FNcXROJyBeNnoeL3Hqtv1zJMd9ZPuK/O/AyXRtINHVrhHJm4x2r5TTzHP1yPqrumY9xVTFOA638SRr2J+TVj6/I7MX3caHO80eOmR5/XS1MdwnfNwgQ3j4wdzllah6Yj7nYhujAdFjMG8OkuJiJeoD+Zfduk8V3wyFln9In8TolmbJhXikW7+mHS7Qsx/44pGPLhBoRvm4kFtW6S84vxj5ULUf79HPOz+EcLsdD5vbByEiJr2qIR4X8qxRoUYfbd5Zh9dSYaV1Zg2l1VqFt6C2Y+2oTcWfdgYcVs5J3qCJb3vJaDjhiHpqOy9jDy/nG+c95yzLiiFzbdNx3T5lU7VyBE1yal3sy24CBZChk7CWyvphduS65HMwZHmlC9JIwNffMRmpzvrkyBTYtRhVI88itHIG6YiCkz52P54tnIdSyrqpVrIkKRkY3i6yYi/8IzzS5Zl07EROf3xOtykdA23RRGw9hFWP4vMzDluhDKfvUI7pmcgeaVjkX27+finseWoGyqc6ypZVhyn3veaq8F6YjhXT9FuF8ZHlm7HPNnTnHOG8Lsf1uOpbfno2HFz7HYL35CdDE6LGa0rNoSIw7DuO+++8wyxYw9mF64b9Iuav0qVNxb4U5zMP0bE1D6h35OY34QM4a5aVJiIkpvL0GG+8tweTHyRzg2W+M+YwGmhiOQU732WwaKCovMUs7UaZjY1yxGsOfdu8+RNJftq7Ha0bbQtNnI8fnWOZNLUOLkcMt2xQ5F16bDYjZgwAAjSG3FvdhzaceXcUiGFT+7T9K9oC9XI7w87E5rsG/QDCx/ejnKiqLkp+NcMQTZRx0qAxk0wjY3pS5mMY6fcXrEwhs5PNfMW3HP66Fp+6vY6tiHrXE6z/S1SIxu6/7UJVeIk5kOixndSPLLX/7SzONB64tixv8EsJaY3cceIyFTF2H37t3Y/doOrF0wBRn1lbhl9jLUpyvw3aNnjM6ENNLG8XsmMUau+eMPnb85mPIzG6eLMU1MHLkTIsh0WMxoVdnxYrS6koVpOzI+zdC9J7JvmI+FN+cDtYux4OGu4VpFBK8RPbNsnC7GdEX7e5WFCBIpdQBwvBitLVpasYL8fuzof3LrrbeaeUfI/l/lmF0I1P37Aizb6a409EHPQc7szRhxrl2eGFQKJGNJpZusYTnIctzMLdu2umuEEH5SEjMKmf2XJIoZ/4UpVgyNsTL2alLIuE+sf39qH9mYcccM5B+sw+L7lnlEaiRGMgRVW4PVUSLXjOrlYURGiKVG1oBsM//g42M4GGJsEcYPBupXVPrE24E9uw9XpaGTQoiTm5TEjFhBs72b/MdzihonCtiQIUNa3qph06YmZC4jZqOsNBfNjrtZ8bCVswwUfSvkSF0dKmdMx51Lq7DmyWW4c9oELOxejLT8K2VONoqd2ZqHforFT65B+N7FiP7v006gez5m3x5CjnNdC354PWbduwxVTznnXuT27P6xGfqfe9HVSVnMiBUp/lM5ezD5m8JmBYwdAPbVQPydLnJvLcOMwc2oe2ghwq5pknF1OZY+EEJxnz2ouu9OzLm/Ck3D7sHSu/Nh/1U9JbJCKHeOn//ZJlTOnYPFjufXqZ0HLhkl5XjisYUIjQL2rFmAO8vmoPI3DehZWIblC2c4Ai5E1yatb5oVQojjRVosMyGEON5IzIQQgUBiJoQIBBIzIUQgkJgJIQKBxEwIEQgkZkKIQCAxE0IEAomZECIQSMyEEIFAYiaECAQSMyFEIJCYCSECgcRMCBEIJGZCiEAgMRNCBAKJmRAiEEjMhBCBQGImhAgEEjMhRCCQmAkhAoHETAgRCCRmQohAIDETQgQCiZkQIhBIzIQQgUBiJoQIBBIzIUQgkJgJIQKBxEwIEQi6HTp06G/ucgocRkN1GMueWI0t9fVoaHJWZWYjP3c8ptw+GxMH94wka6EaFUNLEXZ/JUP+HWuxfGa2+0sIIaJJ3TI7Uo/wbddjQukCVNW4QkaaGlBXvRhzxo/DrIfr3ZUp0N0viEII0UqKllkzqstvROmKhsjPvjkoLslDlqM7hxu3YN0f650UJBuhRU+gvCTD/ALqUXVvlfO3DZobsG5lHYw29p2IhesWYmJfs0UIIY4iNTGrWYBxM5ehkcuDJmL+soWYMshsMTSunIOZP1kDI3WXl2FV1WzkmC2JqfvXCZi+JCKScjGFEIlIyc2s/mNVRMgciqfPiRIykjV5DkJXuz9ersLqWnc5EY1hhH/jWnuDQgjdKCETQrRNCmLWgH17I04kkIvcK7PcZS9ZKB6b7y43Ysv25GJndSvCqD4YWc6/KYQW71QIIeKQgpvZgGXTJmDBJi7nomz1E5g9wmyIproCQ0vdfsupi7C7oiSyHA/HKiv9bkVEzByrbNFvy5MUs/1Y94uHUItC3HxLDvb+v9/gmYaD+OJLoPegIvz9D6/BwB4fYdcfV+J3G3fh4GfOLqf2Rc63QrhpdGbkEJaP9qF2zUrUNDThU6Y7pRf69h+D7/2Tc4xICiHECUYKllkGeraIzFZsfdE6nNFsrd/iLjns3ReJn7VB/arVLVZZ7nemdMAqa8Izix/GC8jBNd8uwqh+vfDRmzVY8uta7Fr7MMKbDmJgwbW4tngUMk856JxvCX6z092VfLoN4QeWYN3rXyDz8iJce914FA7vg0/27490RgghTkhSELNM5OdaFxLY8OgyVPta++Hti1G5oh3DMprXYOmvt7o/ijHp+mS7Czwc2IWmIbNQNs0RoauuwfduuQ3jGct7c50jZL0w/rZb8b2rx2DM1d/Drd8fjd74FNs2twrup1uex65PgcETyzDrumsw5qpCjP/7W3HnnMkY5qYRQpx4pNQBkH3jPyI02P2x13EPrx2H6T+pQMW9zvST6Rj33UrUuVZWMjSuXI01bvqMyZMwKVYYLiEDcdXV/d1l0hujR0Scw15516Cwt1mMkH0php/uzN9vcpzUaD7/5CN3ySWjt3MkIcSJSkpihoxilP9iLoptyOlgI+pWhhFe7kwcI9Y3B6GpnhjZoIGI3y9Zj9VrNrjLWZhy3UTHke0AZ12Awb3cZZdep51m5hcMsMprOQ29/GlHjcYwZ92+px/AL5+sxd4DX7hbhBAnMqmJGRkxA0tWrcL8H5Ugf7Cran2zkFsyGwsfewLlhf0i6xyyMvq4SzHYvgEbXnaXR0zC+CJ3ub2c0sNdOJoeyVxt7zyEbgmhcGAPNL2yDv/5i3mY/+BvsOU9d7sQ4oQkdTEjmTmYcvsiLF+3Ebt378buF9bjiUVl5n8y6/e+6iYCcoeNdJeOZusz62CjZTlXFyPXXT4uZAzD+Bn/jHn/5x8w/jJHoN/bhpUPPoSaA+52IcQJR3rELC712PCMlagS5I2N5zjWYd1TtqMgB8XFx1XKWskYjMIbbsVtEwejx5f7sW2z+jOFOFHpVDFr/n0YVa7rmDF5AiadH1k+ipc3oe5Nd3lQPsZe7i4fBz5t/gj+KFnvs/qCzmuPU+O7sEKI40uKYtaMpqbD7nI0TZsqcUu5/XenXIR+ED+g37B5a8s/nWcU5qF1wMex5+DGJZj3L5VY8tQzeP6F51G79jH88vGX8GmvYRhzhf7TXYgTlRTFrAmr51yCgvGzMOfeCixeUYVl/1qBOf8wDhOmLXaHZWQg/457UBbX2mpC3dY6dxkYO/z4uph9h+ZhWMYn2L+5Br976ndYt3kvMLDIdArkaWyGECcsKb4CyPsvTbHIRsnPFmLh9BzEfxvZBlRcNQthI3xt/FuUEEK0QYqWWSaKbyjDlJJ85GRZJzIDWSPyUfKj+XjiuVVY1KaQOexqQEPLwNohGKJh9kKIDpCm12YLIcTxpZOHZgghxLFBYiaECAQSMyFEIJCYCSECgcRMCBEIJGZCiEAgMRNCBAKJmRAiEEjMhBCBQGImhAgEEjMhRCCQmAkhAoHETAgRCCRmQohAIDETHvZj3S/uxt13O9Mv1h31YWQRny2POGX2SOuX8U80TvT8pYPUxKy6AkOHDj1qqqh2t58UHEbDU5UonTIOo5n/ggmYdVcYWxN+ib0aFb7rjnv9TXVY9pMbMe4qbh+NcVPmYNnmZnejy8GtTprrUcBjFFyPOUu3wpcCzSvnYPSUSmw94q5IKxSyh1B7zmTMmzcP8348Ht7vwndJ9q9DpSPsYfuBsU5i/9rKyAPEN3X2eYNGGiyzfMz93e7I9zKdae0d+QiXdqagRUQkXcevXzoLN5YtRvWbwMjJE1HcpxkbHq/AzLJlqG9LNN5+F+9y3jcLOZfmRE09va/WPejkNzQdC1Y2ICN3CqaUZOHwy2uwYPYtWLbTTYNGhO+aiQVv5OGnq9fiiVuyUX/fTNzzlEfOnOMseLAeU35chtzu7rp0sn8b6g8Awy7Jc1eImBiBq8S6tJutwzCZDxE7fWcYdv3X3ahc284TdVr+TnzS7mZmzyzH3LFAuPYkMM/eDmPRfXVo7usI8q/XY/m/LcSSdWuxaGo2mmsXoPLRyLelYtJ8GB9yPjyEhb9dhVWeaa7na+x1SxYivBfILV2KVb+aj/mLVmHp7fmOONVh8X+siVhfb65DtVNcoVnlmDgiG7lTSzFlbDPWvNj6cQUeZ0vRXMwudFeIzqf/eJQ5whI6Ht/YyQ1h8lCnmry2Te5+knTtmNm2BsfOcygJYUbLR1QyUPKd8chxljY8vwEJP/s7eCCy3cWjqUNNdYMzL8Gkm1pbRM7UKZjozJtX1mETrT/ztb6RyLqQc5KNgYPdRfJyJSqr8zDnluK4n+sTwSPvkmHAgSaJWZJ0wldtG9DoGBT5RUc38eryoShd4f5wCC3ajfIS94eBLmQpwu4vw9RF2F0RSRS1v+PKmnQt24/+UlT+HWuxfGZ8qYnL6Rk4k/MXG/CqMyvmsp83Gh2pSsCuetTz48YjhmCk9wPIGdkYcoUz39yIfdQ6wz40sdaaD7o0YJ9jzWUMOxU4Uo/F94eRdct6lHTos51uLMxxIVsYOhnzprW6kwwOr9wdWT7ouDZ3/5eTje/EtkgY33loY6bjEoUQ5ZBuDTv7NaHw5jKMt8E2s26X+4PQlfLutwXhu1eiNUXs7XDykrPDzWNL3v37xs9zzLzZckEhbvbGB01aRPJBl+2hWmSa40aXY+1Ddzv7An0LbkbZBE900d3HhlyP2t5BzD1635dXQ6QcmgqmIOe1qjTlL3Gd8d6ba95hnWg5oq+cjx1pt8yqyx0xGjsX5VEiQqFxhGjvXKx1Y2u7F4WOiq01LHXkyRE4G3/b/bu5yF9RiulLIy2+pILrFyHkLFMITRqvkA12hM2zb0IZ658JU/er16LKY4LVP1tjRIx3/DOzpg2c/JnA/1XjcGNpJdbs9XwUubExcpwzM3wWVU/0NI+ROjS+4cyGFaNobCOqHq5E3d4m1D+5CFWbsjHl6mI0LF+AcEYZ5kzugE1m4ieeoL6ZJmPY7pVRvZV505z1Nxc61TAiCEyXsmvVIiD2vPOM29SCyRsb4c2e7buw8u6w00yiaaqpRP0l7nE8QubdlzGmuOTmODJ5EPWveG2c/WhiYz1Qj22e1Vt2OPI4NCdaqA39Mf7HznlMObHBRs4bJQQs18eBmzx5OrjxoQ4H8k1ezs404hWx0qLzSvavrXEEfRiKJlyanvwlWWcsjOs9hpta0k4eetAR0qPv4bEgDWJWhwXXtvbkla7Ix9yfzYgWkuqwYzH51peUY9FUIPzIMkeKImTPXB5tqQ2bgZCTpq7VfIlDxBoMFXp2dvaNFtQYXBrCNIrEwTW481qK0RzTqzntsX0J3bnmjw8jv2QKQtNDmFiUg+wejdhavRhzbpqFZdZc+ILffE+GbMxYuMQR6dW4ZXwBpj34HvIfWIq5g8JwVmPG/56C5uVzcH2B2xv6D5XYYB+EbbDlaecJfNQTNQ8hVvgDtXimE3vL9r/jPB3OzsEoT1vKm9ZqdZm8nV2ImzyNLW+a02icplnjC3ofPKcoWlz3Nznuf1/kXOY5eG6oDQHOQ44//rS1HrvOHoZhZx9E09vuOqcJ1jvWX8c7QRzL0ms55V6DwrOdBr+j/U2bFvDK3Y4ofd89njmWIxRPe4+1H9tecypCTPGNReL8tbvOOGm9gpn3DYrpLtQfh57YtPdm7v5dEWoobuWtJld1rWNxTQ1hhu/hmT0wH9jU2CJmESJWXKs4Oqv27vOl8ZONLHY6lE5vFZKkyMDEBfy2Z7ErRjWoP6MYP6+cHbHYBvVEH5PuaDImz8fyRfNR/rNyLFy6CmvXr0JZIYWxDuGVCR1QFye9dfQzi1H2n+vxklOGL613RP1bGVjzfyvx4fS5mPLGApTeW4/s21dh4+q5yN2/GLeXVyWI57XRMPuPQk4HG1my9D8v07EkavFQzLFNbt6K/C5Tf2Q6+Tpo/O1W+mZGp6JFnelYWu2xAPzxJ1o9fS++BjnneMrBFclMb0igPRwlKs71OMfH+8nEvWiVtg7LiLjyXnetP0Zd7NjOu+tbr9n0QDuC940kxTdh/tpfZ45Ka+6NY02/k/iK0036OwAci2i540JiRdgVlkj8p8Ud80wT7otu9IyJDR06ATVFa1vEkdZbYhzL5hGmbbUSrWuakO5ZKPnZEqzdyPO9hPX/WY6SI67ADs/CEJMoCXrmYPbUSWaxcXt9ZP+Brhv7xeFIjL8F57djtZmgf5ZZcRTNv1+AhW+EUDYrB5ueDaOxJISf3pCDzBFT8NMfljjb67CpLbPPNMzjiGMpGZeH7olpoB7hcfNGF8U23sjki9O4ZJ7nEzNaCvNudqyKVgFI6MoZV9NaDGy0EcvOiJwrEPtfqXesxWhr8tjhG5rhj0k69L8sJ8rqSXt+j3edSZHO6c28MMux1yxuzxwD9dZ6i5oc8WCy6oqIi+pYeR0K2jtEYmrO5Ihp3X0ToqzD9rB1Qx3qnXnxmGLzlEmaI65kZfSMuKnDhmAkA1Gb96DBKzzNDdiz2ZkPykFOrFDPkTos/sUWFN88A7ndnYcBOxHO7deSl0xnGXgP77a4RzFwn5DpxlhcyeIObZjXIjzu+Cc3bzY+d9QU5eLEw41hOelvLnCaeMIxWRGrz1gWxsV0RcCInNOI90dctr4Xj3JSnqA45VnkuMsR66gT8ttJdeZY0Tli5uvpM+7kirrIMIh2UY06T+9n0pSUm8G7id1TR1eaop9FzZsrUbnCefQNCmHK5Dhmk0Pj3oZoa+twPRY/vs4s5ubkRSpF97HIK6KsrUHVCspjhPoVVc4ap1xKijyi38rWXzqN/so5KLua+2aiH92ejw+3xN+a3nvX8b2ch0Sbmu9pvH5SHiDLxu8uuphgdVwoPIyH2fhUG3nrAP0nlEXGZPkzFYXrpjku1TrjYloRYF7YObANTY7LFhWHOwFpsSS3PuNYsQz8pzO/nVlnOp/0i9muZZheGh0jy54ZQghhlE5rDfYbHGuspTfTWHN1qHm2NYXpGXWXW3HjY1GDcqtREWWFNWBDjSOnbY4Bi7DpwQIUjJ+O0rvuNMH/cX+/2MlFDkL/XIYSY145NG9AxaTRGFowC2G3zdb/egIKxt3o7Odcw09mYcK461FZ24yMwrm450ccpUYyMHHWbOQ7baju/pm4vvRO3Fl6PWbez7yFMGdWDCnbudgR0yzMub3E7YTIQFHhRGSsXIR7nqxH084q/PzX1cj+XglK2vxPAEdAvu+6eVFxqy0Is2t+6OSO9Vi6PYO1jnC3SMfWcMvQDsv+teHoUei0hlriUU7eitgoVx5lTW15JIk42P51CEftF4n1HBVb82HctAP1qH/fK1oRkTv4mlO2ybhsbrwuumf0GOK6yzU1zkM4VuA/pfx1Up05RqRBzKJ7M4deuwDZHDbhjg2LUILy3WsxFwswwabj9EgWQjaZG2sz7qG7va4wVswsGzOmMSbnxuCsiEXF5NxhGlF5iE1WdgmGYA+qH68y/9KUXTIbCx97AuUtShYb7jfy1EZnvzDCKzeguU8+Sn60EE/8agZyvCLjXNeSxxYi5FhoTdVVqHqxGVmT52J52HGv6YJG0YBl94XR58dzMNGzLWPyPVj642zU3389Cn64GI2jyrGQ/0WQCOPmud3qLXEpd0hDUq5cLFp7th6yx9yRE2NoRJMZ69RyXv84Lzemho0PtaZxpprMa45uoDFoitovck1Hj5fyYYLYB52mHi1aEZFz1p8TGQbRNnm4xnFrOaSB5273vxuljHt+J7+xraQU89cpdebY0O3QoUN/c5eFECcBZuDyazkxBtB2bTonZiaE6CS24JmNJ3hHxXFCYibESUTriH9JmR+5mUKcBET+J5b/9uH//1VhkZgJIQKB3EwhRCCQmAkhAoHETAgRCCRmQohAIDETQgQCiZkQIhBIzIQQgUBiJoQIBBIzIUQgkJgJIQKBxEwIEQgkZkKIQCAxE0IEAomZECIQSMyEEIFAYiaECAQSMyFEIDilW7du7qIQQpy8dPubg7sshBAnLXIzhRCBQGImhAgEEjMhRCCQmAkhAoHETAgRCCRmQohAIDETQgQCiZkQIhBIzIQQgUBiJoQIBBIzIUQgkJgJIQKBxEwIEQgkZkKIQCAxE0IEAomZECIQSMyEEIFAYiaECAQSMyFEIJCYCSECgcRMCBEIJGZCiEAgMRNCBAKJmRAiEEjMhBCBQGImhAgEEjMhRCCQmAkhAoHETAgRCCRmQohAIDETQgQCiZkQIhBIzIQQgUBiJoQIBBIzIUQgkJgJIQKBxEwIEQgkZkKIQCAxE0IEAomZECIQSMyEEIEgrWK2cuVKvPPOO2b5D3/4g5kI13HbRx99ZH4LIUS6SZuYUbAoVlbMDh06ZCZit9nfQgiRbrr9zcFd7jB79+7Ftm3bjGD17t0bZ5xxhhEwu0wR47bzzjsP2dnZGDx4sLunEEKkh5TFjEK2ceNGI1yJsG7mN7/5TSNsifj444/x7LPP4r333sOVV16J4cOHu1viw/y8+OKLOPPMM/H1r38dp59+urtFCBFkOixm1m2kRUYrLBQKuVviw30YO6OQjRo1ylhtbYmgV8wGDBiAwsJCnHrqqe7Wo/nss89QW1uLt956C+eee67ETIguRIdjZk8//bQJ8Ft30kLBonXknWwczabjb+7LYyQDxe+vf/0r3n33XXdNbLi9ubnZWGVCiK5Fh8WMlhUnr5BRuGh50e30Tlb0LNyH++bn57tr2qZnz55mn8bGRnz55Zfu2mi4ntszMjJw9tlnu2uFEF2F7vc4uMvtom/fvsZi2rdvHz7//HNcfPHFOHjwoPlthY7BfooQhez88883+9At5bygoCBKCGPB47755pvo06eP2efPf/4zzjnnnJj70SrbuXOn6Vzgfp988gkGDRqEr3zlK24K4IsvvsDu3bvxwgsv4PnnnzfLtOTOOuusKPe1vr7eiDBF8S9/+Qvq6urMPrwOiqXt4OA6Tq+//joOHz5sXNvu3bu7R2nl7bffxubNm/HSSy9hy5Yt+NOf/mRcaJ7Xmz+ue+aZZ3DgwAFzvYz9MR+8Fp7nww8/NO62H4p4dXW1OTfzIERXpMOWGRu4d1yZF4qcnWIJD2Nt3JfHSBY24h49eph4WCy4vlevXqYxs/H7oeX28ssvY8eOHSYN428UW4ogBYNC4WfPnj1GnCnUOTk5xoWmwNACpTBRjNgxkZmZiVdffdUc2wvPyXU1NTVG7EaOHGlEvF+/fubYzz33XMzzcr9XXnnFnIfCfNppp5k8U+RiDW/hNVBg+/fv764RouvRYTFj4+kotlfTzpOBwkHRoHjSmvLC39b6oxUXC4oHrayvfvWruOqqq3DRRRfh8ssvx9ixY4340UrzQpGhkDD9kCFDkJeXh8suu8ysp6BR4LiOliCPd8EFF5g8eMWGFhmtNoome3C5D9PTvebEtBRBv+tMC5frJk2aZDpWLrnkEiOAH3zwAd5//303VQQeg2JGi5VWoxBdlZRiZpMnTzbWlx82an/w3wv34b5s4MlyyimnGAH69NNPsX//fndtBLpZdCHpVnbr1s1d2wp7OWm5Uez8+aUrSSGgIDKdl4EDB0a5n7SOKJYUVa+7Zy1CWl/WKqQY0S1mb+qwYcNM/r1wf1pStLb8os5rGTFiRJQ4MS1/UyC9UMgoaBRTIboyHRYzihTjX15LxFprXG+D/w0NDWad15LjPkxDsWsPFB2KBi0sKzyMM1GoKDC03mLB83HatWsXwuFw1PTYY4/hjTfeMCJJEbFQtPxWHt1cihKvhZ0SXrjNC4WNVhyPEWt4CI/D/DL/fjGjaPnPTXedcTSvq0nB5H2gINNyE6Ir02ExYw8lBcnbEGn10NpiXMg7+QfJch/uy6k9UDCysrJMg7bWGRszrSqu91s/liNHjphp6NChxm2MNdGV849hi2XlkXjrvXD4Hs/JY/qFzkKR84soYYzM2zFAeG28RgoZrTHCcmRZUODbGn8nRFegw2Jm3UQrUlbU+JtxIe8UKw335THaC11FjiOjC0choIuZyDKh+HCiIFx44YUxJwpFPNHpKDwnLUi/WFlovVHQkhUiGxejgNMq42BiCmasHk4huhodFjO6PRQlxs4oUuyd9Ltw/olpCAPiVuDaC60WxrLYkOmm0jJhrKwtQaBgcD+6fRSQYwHzQ3eU56Qr6YdixGA+8xXLDY0F01LM2UHAzgC627TK4rnXQnQlOixmFjZYupJWnKzIWbhsh2dwzrS01lKBwXAG3TkejELABt4WFAE2+qamppYYnhdadxSIdEIrj6JrY3UULy+M89FVZt7b0wtJC5TWHi1T/lcE94/nXgvRlUi5FVCgKE600AiX6UJyPScuW/HicIRUhYyw8VMk6WayMSdj2XB4Bd207du3m//35FANigwHqXIgK921dEMxYw8sBZQxxtdee81Yk5s2bTKDYJkfjj1rD9yHbjU7LdgJ0VELV4igkbZHuu2ttI2Lc+8yhc3bo5kqjBPR2ko2XsTeQf7jOYdJ0AqjoFDYOGqe48R4rHRDi4lj0caMGWPOY3t56Rqzw4FWansD97T4KOB0XylsybqoQgSdtLzPTBxbOBCXLrbXvReiq6Ngy0kG42UM/NPV5CSEiCAxO8mgkNFNZTzOPxZNiK6M3MyTAA7tYCcCx61xTouM/1MqMROiFVlmJwm0yBgrY/Cfb+qQkAkRjSwzIUQgkGUmhAgEEjMhRCCQmAkhAoHETAgRCCRmQohAIDETQgQCiZkQIhBIzIQQgUBiJoQIBBIzIUQgkJgJIQKBxEwIEQgkZkKIQCAxE0IEAomZECIQSMyEEIFAYiaECAQSMyFEIJCYCSECgcRMCBEIJGZCiEAgMRNCBAKJmRAiEEjMhBCBQGImhAgEKX/R/PPPP8e+ffvw5ptv4q9//SsOHTqEr3zlK+jTpw8uuOACXHzxxejVq5ebOjbcb9euXdi/fz8+/PBDnHrqqTj33HORnZ2Nv/u7v0O3bt3clMlx8OBBNDQ04N133zXHYx7POOMM9O3bF8OGDUP//v3bdczPPvsMtbW1eOutt8zvvLw85OTkmGUhxIlBymL2wgsvGCGKx1lnnYUxY8YgMzPTXRPNG2+8ga1btxoR9ENRHDJkCHJzc3HKKckZke+9954RHopYLDpyzL179+LFF180okgkZkKceHS/x8Fd7hC0Vmi5DBo0yFg9WVlZxrL69NNP8cUXX5g5hYrWEIXECy2nzZs346OPPjL7XHjhhcaSO+2008w6iscHH3yAHj16xBVDPx9//DEaGxtx9tlnG8tu6NChRlC//PJLs41zHrNnz54455xz3L3i88knn2Dbtm1obm5218BcS7L5ocX62muvoampyeSJ19IWLMsdO3YYkT9y5IjJu4XH2bNnj7k+O/3lL38x5UvLM9GxhQgyKYsZueyyy4yYsbFyGjhwoHETKVZsnBQ1Nn66nhaue/nll00aityll15qLB7uT0Fk47T7U4BiiWEsmPa8884zx+OcYsD54MGDcfjwYbz//vsmDY9FNziRdbZz507jsnppj5hROCnMFCa6271793a3xIaiR+uSsLy8Ysb1LI8zzzwTp59+uhF9XgutULrWdKMlaKKrknIHwIABA4xV5Ydi1q9fP7NsrTQvFBXbaJmOrp8XHtcKxoEDB1rSJoJiYc/rhaLF+BtFgFBcEnnYFNM//elPRjQosB2le/fuRjx5DTxvPLiNaZg+nshy20UXXWSsYE6XX365EVcKdbJlJEQQSVnM4sHGaBskLRK/xUBLwsbJ6O75BZGNn4JI6G6mo6FSCDjZ5bY6ASjAdPdo9VhLMxVoadLNjRfLI9zGNLSw2tNBwfS8nraEUoig02liRveK1hehW+R1l4g3BsXtsfC6pWzkfuuuvdjeUkKrL55LRteNQsZ4FN3e4cOHJ3RHE2EFh3mIZRFyHbdRxOOVRzxsLJCCKURXJe1iRiuKQe9NmzYZ95AuGt0h694RpmFgnVCwvNu8cL0VtGTcwlhwHwrnSy+9ZALohO4mXbV42KEmFBZ2SLRXXGJB6zQjI8PEz2L13HIdt1nRT8bKooDRYqXoUiwpvEJ0VdIiZvX19QiHw2Z6/PHH8dxzz5mxY4x7XX311aZzwAsFxitMybhUtiMhGWiprF271uTn0UcfxerVq00gnz2Y7GQoKCiIGecjjJOx95Jiy95Q9rCmA14jrUFeN4P8frjOpmkLPgg4lIUPCw6LYecEBZAxx1StRyFOZjqt9luxYGzML0L8zZhUe+ioZWahlcWJQkcLKBZ0QdnDSheZPaC0ytIpELTwaGlS6Bmwt7AsWE7cnqi3k/mheNmeY1qvXgEWoquSlpbK3rSvfvWrxuLhYFIOeaAFwTFoGzduNFYELSsv7QlwE4qjDd4ngmkvueQSkydaYrRa2Ojp9tLVXL9+vXEjvTB/tHgoDBQVDjdJJCztxVpePBfFy0JXkQKfyCojLANvbyaHoFB0Wd4c3KtOANFVSYuYMV5Dd4xjuSgedC2/9a1vGVEjHAD6+uuvm2VCCynRvzj5YSNO1kpiYJ9DKZgniuvYsWNx3XXX4YorrjAxPMan6BrbTgjGnmjZ/PnPfzbbR40aFXN4RzqgUPIcdCspYBQhiqw3PtheaKlxomUm60x0VTrNzWTDHDFiREtwn43Xula0UKyVRRcrnstJl9D2PlL8KIIdheekJUMrknjHuVFM7P9dUgwY87MxQDtt2bLFbCdctuspgO2B10D3kNdGd5MuLc/JoR/JWp6xoDVKN5zCLERXpNPEjFDQaIUQulbWBaLlZEWOlol3mIYXb2yro1aLF1p23p7J9sbt0gXdSYoPXVpOFOpUeyJZvhRsdQKIrkqn1nyKkXV7/DEvWiLW0qKVFKuTwI5T4/ipZP6PMhG0WrzCaV1d9nJyYCxjT/Em6zIT+zYQTh0Z28Xz0S2k1cn8xBo03B5o4XHig8M+PIToaqQkZhQbKzh+6EYxTsY5YeNlI7ZQzKw18s4775h/mvbC31xPmNYrZhTJDRs24Mknn2wZO0Zo5XGMGOex4L8mcUwWoYXGPBFafYz1MaYWbzr//PNNWsJlu76jIkvrjFaUdTuThdYtr4NvKuG0fft2UwY8FgU5FVdViJOZlP7RnDGnZ599tuXNDbTCuI6Niz2DVugYTGfvoFfM2IjpFr399tvGReKcIsVlNlIG6Bljsz2LXjeTx9+9e7ex3iiWFAZaJDaQ/8orr7QMf6Dlw7gWh1xQXLkPz02rioNnk4UxP47QJ+39R3OWDQXZf/3MG/PtFUrCa2JvJ6/ZCi5h2bKM6R5zzonixg4Yvh1E/wEgujIpvc+MIkExawuO16IFwwbnh+Lz6quvGuGKZU2xcdJi8g+6pWBxImzshYWF5vg8BoeC0DqLB9059nByak98iXm0nQDMk95nJsSJRUqWGcWG/6Jje9BoVRGup4jxjQ6cbLDfDy0zpqPVwn0pRrScaJFwWIXfvbPw+LTimJ4WFt0rQheL4mZFisei5UIriOs5op8viuSwDZ67PXTUMhNCHBtSftOsEEKcCKgfXwgRCCRmQohAIDETQgQCiZkQIhBIzIQQgUBiJoQIBBIzIUQgkJgJIQKBxEwIEQgkZkKIQCAxE0IEAomZECIQSMyEEIFAYiaECAQSM9EC39nGb5xy4rJIDr7R+KWXXjphy+xEz1+66JQ3zX79619v1yupjyd8FXVtbW3LJ+0sfEEk32DLF0fGgl9V4mu4uT9fi80XRvIlkXwDrX0ZZaI38fLYLCum52u+7UeIeSx+xJgvqPTCt+vyXHzBZLq/wsSKzu+bDh8+3LxwU8B8KJr3l/fC+8pzPxSLHTt2mDrf3pd28gWiO3fuNPfVC18omui8yZJK/k4mUm4RbPQTJkxAKBQyE18pzQbc3u9JJgvfj7927dq0Hd++4ZYCwo+T2Im/2xIMVnK+w59vneUX05mW3yagVWM/YcdP6nmPaSf7PQOeg6/x5rv8N2/ebCrwN77xDfMmXH7HwH7QhVDk+J0Eik26hYzwew38WlW8twKLCLzHnNIN34TMj1XbiXWDDy/v18SSobPydzKQ9lbBD2vQQmHDOxngk5HiM2DAAPMVdjtRVNr6ahI/KPztb3+7pfLxK+586tHCs9/75CfpvMfk9M1vftNYZBSOiy66yAgehYQizVeAU+xYhnwi2w/CMI979uwx5Zrq9zVF8vDbE6NHj06LddReWDf40OKHbURypP8Rf5LSu3dvdyk5KELe7wiwwnPiura+L2AtLH77wH7fgN9QoIVmrSIue79/SSuU1iO/YSC6BqxLtM5otYvkSDlmxjiPN7ZEC4NuJv1z/xeMXnjhBfMZOYs/tmb3pQtnoQV01VVXmWX//sRuj/VlpmS+omS/upTKF5foqvLTdzTv+TTnsWK5ghSt559/Hm+99Zax5uhOEpYj3UqWIy0vxk+ee+45EzOjxcjrHjlyZMyPuyTCxktYPha6xvaLV3RjGPuzX5snbEQjRowwgu3Fxnfsp/q88Np5DrtfrFiQ97zEf27/eRmzYhqWQUNDg1lnY3rcZj8wQ+LlmfjzRuy5+RlEb56si8br88bMmN7mwWLjWsTGpFiHbb74gZ1EMchEZUpo4TOvrA/+mJfNI8vWH3rpaP4YP/Vea6x0LA/WeXoR/NQkY77EnvN4WLMpfZ2J34SklcFCslYFxY3wq0z2g7SsSP/zP/9jbhxdrdzcXBMjoHBxzm9jEhYOK+7XvvY1jBo1ytxEig1FgDeR2xifYmHzy01Mx3VWyGjN8Ph2XzZkum1twWPx5nJijII3kQ2QNy7RV8YpMuvXrzefy+M+FENO9rr90CpjxaVgsWHZdJzz/Pa8/MgvKwcrEPPDsmWlaS+8NpYfrUBWMIonj89KT3eYDyBWOpYhXWPmg98oZcOIJ8ZsOEzn7xjhenufOLcNlPXAnpf3yTYI5o0PpsGDB5vrpFDzGJx4z3h+1i/mk/eR+aebzfzaBsy8soFzX1owrEex8s3nNdNzu21kbIx047nNno/n4YOG109x5PnZ+Cl4zDevg+XEEAGvi3WM4kgx5r3lORgPtWXNvLN98PixRJbEK1ObF+aZ+9vvwPrTsNOG61g26cgfBZRpWT/pCTAd2y3rpLUWCc/N4zEt64+9h3SLWa62TI8lKZ+NBcKAfDgcNhMbJa0IVmQL1/FmeNdTAGlVsZBYyQmFwGup8SaxYtkYVDy4Pyuz13Lhvjx+IliZvA2Kv3lD6+rqEp6XosSnKW8mbzitKz4BeYxYsHJSsFjJvEJJF5cCzwa2evVqE/indccKw3Jj/vgRY37B/YknnjDWnf2sXzyYH1ZUvzXERkkB4H3j+ToDNh7mjxXaYsWA2LzxQWYtDTYm5pPxS2+ciGXJ/bxiwHvNRmWFidtYRt40XnhuNizvcdnguJ55tZahLQ+u7wi8Hm9Z8z4z/+0tZ5YPhZ51hHWL18W66b9nXObxY32TNhaJ8sc566ffCuM+3Jf3jHnzwvrlvYfMJ+8hHwLHmpTFzN+bSVeJQx1otVhso/I+VQgbMSumFTPC5ZqamhZx5E31p/FDgaRVRquQT4v2wKdUQUEBrrzyShP058QnMQWFItwWtBJpIY4bN85YhLypdAdoOfhhJeFTjALIsvDDfdk5wDLknBWU186nI0WQ7jPd6fz8fHMcWlxtwcpEQYlV0WM17nRCK4MNkVZDrIZs88bG5IXixHx5GwJ/W9Gy8F5T5GOVcyysRcF6RPiQYINjmVPIbB55Xuab+e8IXvEmsa4nHrweO8bP9mxfeumlLQIdT5DZ/pIV30T547F5/bF6tLmvX6S4r79+2XvFMj7WpN0OpGDRyqAQUFis1cSGaQXKTvYL4RYK4OOPP24qmRXHZKwr3viioiIjEtZKTNTY40Gz3loQ7WnsrADcj9dLF8oPBYhuC29+Mp0NdC9ZMfiks6Y8XQlOXD5w4ECbFYbb4lmInQ0bIBsiGxrvAxuoV3iYN5aT3WYnPoz8D61Y4kJLgSLPOsb9tm/ffpTF4IeNkQ8UnpvixWPyXlDkKArcn+spDPEsvM6Elo/tGefkj59ZQWYemVdeB6/HL1CpYMX+ZKVTnFo2bFZCYq0mipIVKO9Eq47pGcdh5eTvjgbiabnwmOxYoFB6rcP2YPtE2lup23qiU+DYUCn2fKK1BYWKQVXGyShIfCIyDmLhMi0b6x7Fwj510wnLw4YJkoENkg3TCo8NaDNvPA7vs7cB28nrCsWDDzym5YOTZUEXvy1x5zmtS2VdTF4PxYD3hevjWbInCrRkmUdaR8wvSdYqSwZvD/rJSKeIGQubhW6hJcIGmoy57YXpuV97YdyNMadE7ikrtz8uRuuJbh0bW7yKTXFpbGxsET3CvNL64H5saF64jVYeK16icWLME11VVlwKn3XZvJYHz8+K15awsPGSWNYlGwLP09GGyzL15sdaCfFgedBqtvu1lbf2wmPZzpG2xIwPTD4E6M6x/Oy1c3/WVa6P52KdKFgjgR4PQzesH7Ys0wGP73clLXwAsPxO5PJJu5ixoOkueGNk9t9yXnzxxShxoTVmu5NtIdGlsjCY7o+BsQGzIfNmWlj47Im08By0hBI1eFo2/J+1//7v/zZWHHtXn376aZMHWhPWQqDgcf1TTz1lbiqFgHn7/e9/b/ZjT+q6deuMCNIF5OSF4sHGTlFP5GKyPNgoeX7CyspypFAybsaJVhvLN5GYUdRpEXldPOaFsSzbQ9derLvGa7V4O3EI87937173VySgzfMyv7SG7DUxb16XnOm4n1coY8E0XuGyothWw+Z5eb3Mh1e0rEBwvbXW2oJ1yrqrxxp7DbzeeFZkKvnjQ4ehAT5MWR4W1h92PrA9JCqf40nKQzM4nIKj0ykmnLhM89/rKrISsyDYENnwbVqKgh3KwErFiTEQu529n6ygrNyMFTEdJ7pPdCOZhk8SNkyKi92XQyUYa7Lj0+JBy4o3jdYfGxZFkTeT57X5Iqw4tMRsPpiGeef1U1R5DIoU9+OwEL/I8NhWQCgw8QbVUjQZ/6F75q2oduwZY0w8FkeHM01bg3MJYyys/BRIlj2vgeLBnj9/8J0PDV4TK3Rb7imPyYcA88HjcaJ4syzt/ly2Dypup/hyP28ciDEi3lvGBu1xmI73jeVLWL5slP48sXOG5Wn3Yxp25LQlZoTH4HWybK2FzHWsQ7TMOISF+bTw/KwTvG+2EVMs+LCjmDMfNmbFdYy3evdnOXE96zWvNxYsM+aJdc0+/NvCnp8CzHvov1ep5o95YD3nA8pbvoyBevflOrYbHt9b7lzPBz6P501/LEhp0KwQ4thCsbADYCnyopVOiZkJIToHG17pSIgg6EjMhDhJoFVGl5SuYCKXuisiN1OIExzrWrKThR0/yQxd6YpIzIQQgUBuphAiEEjMhBCBQGImhAgEEjMhRCCQmAkhAoHETAgRCCRmQohAIDETQgQCiZkQIhBIzIQQgUBiJoQIBBIzIUQAAP4/CCD9rqZiuMUAAAAASUVORK5CYII=;" vertex="1" parent="1">
          <mxGeometry x="124" y="294" width="200.08" height="189" as="geometry" />
        </mxCell>
      </root>
    </mxGraphModel>
  </diagram>
</mxfile>
